%TF.GenerationSoftware,KiCad,Pcbnew,(6.0.8)*%
%TF.CreationDate,2022-10-25T22:06:49+02:00*%
%TF.ProjectId,Badge_v1,42616467-655f-4763-912e-6b696361645f,rev?*%
%TF.SameCoordinates,Original*%
%TF.FileFunction,Paste,Top*%
%TF.FilePolarity,Positive*%
%FSLAX46Y46*%
G04 Gerber Fmt 4.6, Leading zero omitted, Abs format (unit mm)*
G04 Created by KiCad (PCBNEW (6.0.8)) date 2022-10-25 22:06:49*
%MOMM*%
%LPD*%
G01*
G04 APERTURE LIST*
G04 Aperture macros list*
%AMRoundRect*
0 Rectangle with rounded corners*
0 $1 Rounding radius*
0 $2 $3 $4 $5 $6 $7 $8 $9 X,Y pos of 4 corners*
0 Add a 4 corners polygon primitive as box body*
4,1,4,$2,$3,$4,$5,$6,$7,$8,$9,$2,$3,0*
0 Add four circle primitives for the rounded corners*
1,1,$1+$1,$2,$3*
1,1,$1+$1,$4,$5*
1,1,$1+$1,$6,$7*
1,1,$1+$1,$8,$9*
0 Add four rect primitives between the rounded corners*
20,1,$1+$1,$2,$3,$4,$5,0*
20,1,$1+$1,$4,$5,$6,$7,0*
20,1,$1+$1,$6,$7,$8,$9,0*
20,1,$1+$1,$8,$9,$2,$3,0*%
%AMRotRect*
0 Rectangle, with rotation*
0 The origin of the aperture is its center*
0 $1 length*
0 $2 width*
0 $3 Rotation angle, in degrees counterclockwise*
0 Add horizontal line*
21,1,$1,$2,0,0,$3*%
%AMFreePoly0*
4,1,6,0.175000,0.019000,0.175000,-0.100000,-0.175000,-0.100000,-0.175000,0.100000,0.094000,0.100000,0.175000,0.019000,0.175000,0.019000,$1*%
%AMFreePoly1*
4,1,6,0.175000,-0.019000,0.094000,-0.100000,-0.175000,-0.100000,-0.175000,0.100000,0.175000,0.100000,0.175000,-0.019000,0.175000,-0.019000,$1*%
%AMFreePoly2*
4,1,6,0.100000,-0.175000,-0.100000,-0.175000,-0.100000,0.094000,-0.019000,0.175000,0.100000,0.175000,0.100000,-0.175000,0.100000,-0.175000,$1*%
%AMFreePoly3*
4,1,6,0.100000,0.094000,0.100000,-0.175000,-0.100000,-0.175000,-0.100000,0.175000,0.019000,0.175000,0.100000,0.094000,0.100000,0.094000,$1*%
%AMFreePoly4*
4,1,6,0.175000,-0.100000,-0.094000,-0.100000,-0.175000,-0.019000,-0.175000,0.100000,0.175000,0.100000,0.175000,-0.100000,0.175000,-0.100000,$1*%
%AMFreePoly5*
4,1,6,0.175000,-0.100000,-0.175000,-0.100000,-0.175000,0.019000,-0.094000,0.100000,0.175000,0.100000,0.175000,-0.100000,0.175000,-0.100000,$1*%
%AMFreePoly6*
4,1,6,0.100000,-0.094000,0.019000,-0.175000,-0.100000,-0.175000,-0.100000,0.175000,0.100000,0.175000,0.100000,-0.094000,0.100000,-0.094000,$1*%
%AMFreePoly7*
4,1,6,0.100000,-0.175000,-0.019000,-0.175000,-0.100000,-0.094000,-0.100000,0.175000,0.100000,0.175000,0.100000,-0.175000,0.100000,-0.175000,$1*%
G04 Aperture macros list end*
%ADD10RoundRect,0.140000X-0.140000X-0.170000X0.140000X-0.170000X0.140000X0.170000X-0.140000X0.170000X0*%
%ADD11RotRect,0.600000X1.160000X20.000000*%
%ADD12RotRect,0.300000X1.160000X200.000000*%
%ADD13RoundRect,0.135000X0.135000X0.185000X-0.135000X0.185000X-0.135000X-0.185000X0.135000X-0.185000X0*%
%ADD14RoundRect,0.135000X0.185000X-0.135000X0.185000X0.135000X-0.185000X0.135000X-0.185000X-0.135000X0*%
%ADD15RoundRect,0.140000X0.206244X0.077224X-0.036244X0.217224X-0.206244X-0.077224X0.036244X-0.217224X0*%
%ADD16RoundRect,0.140000X-0.170000X0.140000X-0.170000X-0.140000X0.170000X-0.140000X0.170000X0.140000X0*%
%ADD17RoundRect,0.140000X0.140000X0.170000X-0.140000X0.170000X-0.140000X-0.170000X0.140000X-0.170000X0*%
%ADD18RoundRect,0.140000X-0.217224X0.036244X-0.077224X-0.206244X0.217224X-0.036244X0.077224X0.206244X0*%
%ADD19RoundRect,0.249999X0.395001X0.395001X-0.395001X0.395001X-0.395001X-0.395001X0.395001X-0.395001X0*%
%ADD20RoundRect,0.050000X0.387500X0.050000X-0.387500X0.050000X-0.387500X-0.050000X0.387500X-0.050000X0*%
%ADD21RoundRect,0.050000X0.050000X0.387500X-0.050000X0.387500X-0.050000X-0.387500X0.050000X-0.387500X0*%
%ADD22FreePoly0,0.000000*%
%ADD23R,0.350000X0.200000*%
%ADD24FreePoly1,0.000000*%
%ADD25FreePoly2,0.000000*%
%ADD26R,0.200000X0.350000*%
%ADD27FreePoly3,0.000000*%
%ADD28FreePoly4,0.000000*%
%ADD29FreePoly5,0.000000*%
%ADD30FreePoly6,0.000000*%
%ADD31FreePoly7,0.000000*%
%ADD32RoundRect,0.135000X-0.185000X0.135000X-0.185000X-0.135000X0.185000X-0.135000X0.185000X0.135000X0*%
%ADD33RoundRect,0.135000X-0.135000X-0.185000X0.135000X-0.185000X0.135000X0.185000X-0.135000X0.185000X0*%
%ADD34RoundRect,0.218750X-0.218750X-0.256250X0.218750X-0.256250X0.218750X0.256250X-0.218750X0.256250X0*%
%ADD35RotRect,2.500000X5.100000X315.000000*%
%ADD36C,0.212500*%
%ADD37RoundRect,0.218750X0.218750X0.256250X-0.218750X0.256250X-0.218750X-0.256250X0.218750X-0.256250X0*%
%ADD38RoundRect,0.140000X-0.036244X-0.217224X0.206244X-0.077224X0.036244X0.217224X-0.206244X0.077224X0*%
%ADD39RoundRect,0.140000X-0.206244X-0.077224X0.036244X-0.217224X0.206244X0.077224X-0.036244X0.217224X0*%
%ADD40R,0.750000X1.000000*%
%ADD41RoundRect,0.140000X0.036244X0.217224X-0.206244X0.077224X-0.036244X-0.217224X0.206244X-0.077224X0*%
%ADD42RoundRect,0.140000X0.170000X-0.140000X0.170000X0.140000X-0.170000X0.140000X-0.170000X-0.140000X0*%
%ADD43R,1.400000X1.200000*%
%ADD44R,1.500000X0.900000*%
%ADD45R,0.900000X1.500000*%
%ADD46R,0.900000X0.900000*%
%ADD47R,2.500000X1.800000*%
%ADD48RoundRect,0.150000X-0.512500X-0.150000X0.512500X-0.150000X0.512500X0.150000X-0.512500X0.150000X0*%
%ADD49RoundRect,0.140000X0.077224X-0.206244X0.217224X0.036244X-0.077224X0.206244X-0.217224X-0.036244X0*%
%ADD50RoundRect,0.140000X0.217224X-0.036244X0.077224X0.206244X-0.217224X0.036244X-0.077224X-0.206244X0*%
%ADD51R,1.500000X2.000000*%
%ADD52R,3.800000X2.000000*%
%ADD53R,0.660400X0.406400*%
%ADD54RoundRect,0.140000X-0.077224X0.206244X-0.217224X-0.036244X0.077224X-0.206244X0.217224X0.036244X0*%
%ADD55RoundRect,0.150000X0.650000X0.150000X-0.650000X0.150000X-0.650000X-0.150000X0.650000X-0.150000X0*%
%ADD56RoundRect,0.218750X-0.256250X0.218750X-0.256250X-0.218750X0.256250X-0.218750X0.256250X0.218750X0*%
%ADD57RotRect,1.250000X2.500000X340.000000*%
%ADD58R,1.000000X0.750000*%
%ADD59RotRect,1.250000X2.500000X285.000000*%
%ADD60R,0.450000X0.700000*%
G04 APERTURE END LIST*
D10*
%TO.C,C16*%
X93380000Y-117990000D03*
X94340000Y-117990000D03*
%TD*%
%TO.C,C26*%
X99530000Y-106040000D03*
X100490000Y-106040000D03*
%TD*%
D11*
%TO.C,P1*%
X108854513Y-141223605D03*
X109606267Y-140949989D03*
D12*
X110686914Y-140556666D03*
X111626606Y-140214646D03*
X112096453Y-140043635D03*
X113036145Y-139701615D03*
D11*
X114116792Y-139308292D03*
X114868546Y-139034676D03*
X114868546Y-139034676D03*
X114116792Y-139308292D03*
D12*
X113505992Y-139530605D03*
X112566299Y-139872625D03*
X111156760Y-140385656D03*
X110217067Y-140727676D03*
D11*
X109606267Y-140949989D03*
X108854513Y-141223605D03*
%TD*%
D10*
%TO.C,C22*%
X100190000Y-102780000D03*
X101150000Y-102780000D03*
%TD*%
D13*
%TO.C,R20*%
X94330000Y-120050000D03*
X93310000Y-120050000D03*
%TD*%
D14*
%TO.C,R17*%
X93730000Y-124440000D03*
X93730000Y-123420000D03*
%TD*%
D15*
%TO.C,C38*%
X139415692Y-122740000D03*
X138584308Y-122260000D03*
%TD*%
D16*
%TO.C,C10*%
X94330000Y-121020000D03*
X94330000Y-121980000D03*
%TD*%
D17*
%TO.C,C39*%
X145480000Y-100000000D03*
X144520000Y-100000000D03*
%TD*%
D13*
%TO.C,R6*%
X92480000Y-114690000D03*
X91460000Y-114690000D03*
%TD*%
D18*
%TO.C,C30*%
X78150000Y-60074308D03*
X78630000Y-60905692D03*
%TD*%
D19*
%TO.C,U4*%
X100800000Y-114200000D03*
X99200000Y-115800000D03*
X100800000Y-115800000D03*
X99200000Y-114200000D03*
D20*
X103437500Y-117600000D03*
X103437500Y-117200000D03*
X103437500Y-116800000D03*
X103437500Y-116400000D03*
X103437500Y-116000000D03*
X103437500Y-115600000D03*
X103437500Y-115200000D03*
X103437500Y-114800000D03*
X103437500Y-114400000D03*
X103437500Y-114000000D03*
X103437500Y-113600000D03*
X103437500Y-113200000D03*
X103437500Y-112800000D03*
X103437500Y-112400000D03*
D21*
X102600000Y-111562500D03*
X102200000Y-111562500D03*
X101800000Y-111562500D03*
X101400000Y-111562500D03*
X101000000Y-111562500D03*
X100600000Y-111562500D03*
X100200000Y-111562500D03*
X99800000Y-111562500D03*
X99400000Y-111562500D03*
X99000000Y-111562500D03*
X98600000Y-111562500D03*
X98200000Y-111562500D03*
X97800000Y-111562500D03*
X97400000Y-111562500D03*
D20*
X96562500Y-112400000D03*
X96562500Y-112800000D03*
X96562500Y-113200000D03*
X96562500Y-113600000D03*
X96562500Y-114000000D03*
X96562500Y-114400000D03*
X96562500Y-114800000D03*
X96562500Y-115200000D03*
X96562500Y-115600000D03*
X96562500Y-116000000D03*
X96562500Y-116400000D03*
X96562500Y-116800000D03*
X96562500Y-117200000D03*
X96562500Y-117600000D03*
D21*
X97400000Y-118437500D03*
X97800000Y-118437500D03*
X98200000Y-118437500D03*
X98600000Y-118437500D03*
X99000000Y-118437500D03*
X99400000Y-118437500D03*
X99800000Y-118437500D03*
X100200000Y-118437500D03*
X100600000Y-118437500D03*
X101000000Y-118437500D03*
X101400000Y-118437500D03*
X101800000Y-118437500D03*
X102200000Y-118437500D03*
X102600000Y-118437500D03*
%TD*%
D10*
%TO.C,C33*%
X54520000Y-100000000D03*
X55480000Y-100000000D03*
%TD*%
D22*
%TO.C,U5*%
X98665000Y-99000000D03*
D23*
X98665000Y-99400000D03*
X98665000Y-99800000D03*
X98665000Y-100200000D03*
X98665000Y-100600000D03*
D24*
X98665000Y-101000000D03*
D25*
X99000000Y-101335000D03*
D26*
X99400000Y-101335000D03*
X99800000Y-101335000D03*
X100200000Y-101335000D03*
X100600000Y-101335000D03*
D27*
X101000000Y-101335000D03*
D28*
X101335000Y-101000000D03*
D23*
X101335000Y-100600000D03*
X101335000Y-100200000D03*
X101335000Y-99800000D03*
X101335000Y-99400000D03*
D29*
X101335000Y-99000000D03*
D30*
X101000000Y-98665000D03*
D26*
X100600000Y-98665000D03*
X100200000Y-98665000D03*
X99800000Y-98665000D03*
X99400000Y-98665000D03*
D31*
X99000000Y-98665000D03*
%TD*%
D32*
%TO.C,R15*%
X90230000Y-127710000D03*
X90230000Y-128730000D03*
%TD*%
D33*
%TO.C,R9*%
X116750000Y-63990000D03*
X117770000Y-63990000D03*
%TD*%
%TO.C,R19*%
X93310000Y-119020000D03*
X94330000Y-119020000D03*
%TD*%
D17*
%TO.C,C14*%
X108520000Y-113860000D03*
X107560000Y-113860000D03*
%TD*%
D34*
%TO.C,LED2*%
X88687500Y-114775000D03*
X90262500Y-114775000D03*
%TD*%
D35*
%TO.C,BT1*%
X79324012Y-131204012D03*
X68575988Y-120455988D03*
%TD*%
D32*
%TO.C,R24*%
X100450000Y-95280000D03*
X100450000Y-96300000D03*
%TD*%
D36*
%TO.C,U6*%
X99399000Y-103899000D03*
X99965000Y-103899000D03*
X100531000Y-103899000D03*
X99682000Y-104182000D03*
X100248000Y-104182000D03*
X99399000Y-104465000D03*
X100531000Y-104465000D03*
X99682000Y-104748000D03*
X100248000Y-104748000D03*
X99399000Y-105031000D03*
X99965000Y-105031000D03*
X100531000Y-105031000D03*
%TD*%
D37*
%TO.C,LED3*%
X104037500Y-137980000D03*
X102462500Y-137980000D03*
%TD*%
D38*
%TO.C,C34*%
X60584308Y-122740000D03*
X61415692Y-122260000D03*
%TD*%
D39*
%TO.C,C32*%
X60584308Y-77260000D03*
X61415692Y-77740000D03*
%TD*%
D40*
%TO.C,SW2*%
X85365000Y-110480000D03*
X85365000Y-116480000D03*
X81615000Y-116480000D03*
X81615000Y-110480000D03*
%TD*%
D13*
%TO.C,R4*%
X94720000Y-136480000D03*
X93700000Y-136480000D03*
%TD*%
D41*
%TO.C,C40*%
X139415692Y-77260000D03*
X138584308Y-77740000D03*
%TD*%
D17*
%TO.C,C19*%
X84480000Y-87440000D03*
X83520000Y-87440000D03*
%TD*%
D32*
%TO.C,R22*%
X98390000Y-95280000D03*
X98390000Y-96300000D03*
%TD*%
D10*
%TO.C,C2*%
X102850000Y-129410000D03*
X103810000Y-129410000D03*
%TD*%
D42*
%TO.C,C15*%
X104680000Y-119930000D03*
X104680000Y-118970000D03*
%TD*%
%TO.C,C17*%
X98790000Y-124350000D03*
X98790000Y-123390000D03*
%TD*%
D33*
%TO.C,R8*%
X116750000Y-62980000D03*
X117770000Y-62980000D03*
%TD*%
D18*
%TO.C,C31*%
X77260000Y-60584308D03*
X77740000Y-61415692D03*
%TD*%
D42*
%TO.C,C29*%
X88840000Y-53380000D03*
X88840000Y-52420000D03*
%TD*%
D43*
%TO.C,Y1*%
X103410000Y-107900000D03*
X105610000Y-107900000D03*
X105610000Y-106200000D03*
X103410000Y-106200000D03*
%TD*%
D13*
%TO.C,R16*%
X103850000Y-130510000D03*
X102830000Y-130510000D03*
%TD*%
D33*
%TO.C,R14*%
X116740000Y-66020000D03*
X117760000Y-66020000D03*
%TD*%
D44*
%TO.C,U7*%
X91250000Y-51740000D03*
X91250000Y-53010000D03*
X91250000Y-54280000D03*
X91250000Y-55550000D03*
X91250000Y-56820000D03*
X91250000Y-58090000D03*
X91250000Y-59360000D03*
X91250000Y-60630000D03*
X91250000Y-61900000D03*
X91250000Y-63170000D03*
X91250000Y-64440000D03*
X91250000Y-65710000D03*
X91250000Y-66980000D03*
X91250000Y-68250000D03*
D45*
X93015000Y-69500000D03*
X94285000Y-69500000D03*
X95555000Y-69500000D03*
X96825000Y-69500000D03*
X98095000Y-69500000D03*
X99365000Y-69500000D03*
X100635000Y-69500000D03*
X101905000Y-69500000D03*
X103175000Y-69500000D03*
X104445000Y-69500000D03*
X105715000Y-69500000D03*
X106985000Y-69500000D03*
D44*
X108750000Y-68250000D03*
X108750000Y-66980000D03*
X108750000Y-65710000D03*
X108750000Y-64440000D03*
X108750000Y-63170000D03*
X108750000Y-61900000D03*
X108750000Y-60630000D03*
X108750000Y-59360000D03*
X108750000Y-58090000D03*
X108750000Y-56820000D03*
X108750000Y-55550000D03*
X108750000Y-54280000D03*
X108750000Y-53010000D03*
X108750000Y-51740000D03*
D46*
X97100000Y-59460000D03*
X99900000Y-59460000D03*
X99900000Y-60860000D03*
X98500000Y-60860000D03*
X99900000Y-58060000D03*
X98500000Y-59460000D03*
X97100000Y-58060000D03*
X97100000Y-60860000D03*
X98500000Y-58060000D03*
%TD*%
D47*
%TO.C,D16*%
X66770000Y-110920000D03*
X62770000Y-110920000D03*
%TD*%
D48*
%TO.C,U2*%
X94172500Y-137860000D03*
X94172500Y-138810000D03*
X94172500Y-139760000D03*
X96447500Y-139760000D03*
X96447500Y-137860000D03*
%TD*%
D10*
%TO.C,C1*%
X107260000Y-136880000D03*
X108220000Y-136880000D03*
%TD*%
D16*
%TO.C,C13*%
X99410000Y-107080000D03*
X99410000Y-108040000D03*
%TD*%
D33*
%TO.C,R25*%
X87830000Y-54370000D03*
X88850000Y-54370000D03*
%TD*%
D16*
%TO.C,C24*%
X97020000Y-104370000D03*
X97020000Y-105330000D03*
%TD*%
D33*
%TO.C,R11*%
X101450000Y-136630000D03*
X102470000Y-136630000D03*
%TD*%
D17*
%TO.C,C6*%
X98400000Y-135400000D03*
X97440000Y-135400000D03*
%TD*%
D47*
%TO.C,D15*%
X108300000Y-134500000D03*
X112300000Y-134500000D03*
%TD*%
D49*
%TO.C,C35*%
X77260000Y-139415692D03*
X77740000Y-138584308D03*
%TD*%
D42*
%TO.C,C18*%
X99820000Y-124350000D03*
X99820000Y-123390000D03*
%TD*%
D50*
%TO.C,C37*%
X122740000Y-139415692D03*
X122260000Y-138584308D03*
%TD*%
D10*
%TO.C,C12*%
X91490000Y-113690000D03*
X92450000Y-113690000D03*
%TD*%
D42*
%TO.C,C36*%
X100000000Y-145480000D03*
X100000000Y-144520000D03*
%TD*%
%TO.C,C28*%
X87840000Y-53380000D03*
X87840000Y-52420000D03*
%TD*%
D51*
%TO.C,U3*%
X94900000Y-133520000D03*
X97200000Y-133520000D03*
D52*
X97200000Y-127220000D03*
D51*
X99500000Y-133520000D03*
%TD*%
D32*
%TO.C,R5*%
X95820000Y-135520000D03*
X95820000Y-136540000D03*
%TD*%
D17*
%TO.C,C21*%
X105000000Y-101000000D03*
X104040000Y-101000000D03*
%TD*%
D14*
%TO.C,R3*%
X113190000Y-128440000D03*
X113190000Y-127420000D03*
%TD*%
D42*
%TO.C,C8*%
X98350000Y-108040000D03*
X98350000Y-107080000D03*
%TD*%
D10*
%TO.C,C5*%
X99410000Y-135400000D03*
X100370000Y-135400000D03*
%TD*%
D42*
%TO.C,C9*%
X101210000Y-122890000D03*
X101210000Y-121930000D03*
%TD*%
D17*
%TO.C,C7*%
X96300000Y-122150000D03*
X95340000Y-122150000D03*
%TD*%
D53*
%TO.C,Q1*%
X103252650Y-134160400D03*
X103252650Y-133500000D03*
X103252650Y-132839600D03*
X101449250Y-132839600D03*
X101449250Y-133500000D03*
X101449250Y-134160400D03*
%TD*%
D54*
%TO.C,C41*%
X122740000Y-60584308D03*
X122260000Y-61415692D03*
%TD*%
D16*
%TO.C,C23*%
X95990000Y-104380000D03*
X95990000Y-105340000D03*
%TD*%
%TO.C,C4*%
X101800000Y-106580000D03*
X101800000Y-107540000D03*
%TD*%
D32*
%TO.C,R2*%
X86860000Y-110490000D03*
X86860000Y-111510000D03*
%TD*%
%TO.C,R13*%
X120070000Y-129840000D03*
X120070000Y-130860000D03*
%TD*%
D55*
%TO.C,U1*%
X110670000Y-127905000D03*
X110670000Y-126635000D03*
X110670000Y-125365000D03*
X110670000Y-124095000D03*
X103470000Y-124095000D03*
X103470000Y-125365000D03*
X103470000Y-126635000D03*
X103470000Y-127905000D03*
%TD*%
D33*
%TO.C,R12*%
X116740000Y-65000000D03*
X117760000Y-65000000D03*
%TD*%
D56*
%TO.C,LED1*%
X98260000Y-138212500D03*
X98260000Y-139787500D03*
%TD*%
D57*
%TO.C,SW3*%
X85871324Y-140190795D03*
X88220555Y-141045845D03*
X90569787Y-141900896D03*
%TD*%
D14*
%TO.C,R1*%
X114280000Y-128440000D03*
X114280000Y-127420000D03*
%TD*%
%TO.C,R23*%
X97010000Y-103430000D03*
X97010000Y-102410000D03*
%TD*%
D17*
%TO.C,C11*%
X96310000Y-121070000D03*
X95350000Y-121070000D03*
%TD*%
D58*
%TO.C,SW1*%
X117200000Y-122445000D03*
X123200000Y-122445000D03*
X123200000Y-126195000D03*
X117200000Y-126195000D03*
%TD*%
D16*
%TO.C,C25*%
X95990000Y-102460000D03*
X95990000Y-103420000D03*
%TD*%
D32*
%TO.C,R21*%
X99420000Y-95280000D03*
X99420000Y-96300000D03*
%TD*%
%TO.C,R7*%
X100490000Y-107050000D03*
X100490000Y-108070000D03*
%TD*%
D17*
%TO.C,C20*%
X116120000Y-111290000D03*
X115160000Y-111290000D03*
%TD*%
D32*
%TO.C,R18*%
X92620000Y-123410000D03*
X92620000Y-124430000D03*
%TD*%
D42*
%TO.C,C3*%
X107240000Y-107590000D03*
X107240000Y-106630000D03*
%TD*%
D59*
%TO.C,SW4*%
X57949248Y-108403433D03*
X58596296Y-110818248D03*
X59243344Y-113233062D03*
%TD*%
D60*
%TO.C,Q2*%
X89000000Y-128000000D03*
X87700000Y-128000000D03*
X88350000Y-130000000D03*
%TD*%
D14*
%TO.C,R10*%
X84400000Y-132660000D03*
X84400000Y-131640000D03*
%TD*%
D10*
%TO.C,C27*%
X87870000Y-55400000D03*
X88830000Y-55400000D03*
%TD*%
M02*
