M48
; DRILL file {KiCad (6.0.8)} date Tue 25 Oct 2022 10:06:49 PM CEST
; FORMAT={-:-/ absolute / inch / decimal}
; #@! TF.CreationDate,2022-10-25T22:06:49+02:00
; #@! TF.GenerationSoftware,Kicad,Pcbnew,(6.0.8)
; #@! TF.FileFunction,Plated,1,2,PTH
FMAT,2
INCH
; #@! TA.AperFunction,Plated,PTH,ViaDrill
T1C0.0098
; #@! TA.AperFunction,Plated,PTH,ComponentDrill
T2C0.0197
; #@! TA.AperFunction,Plated,PTH,ComponentDrill
T3C0.0236
; #@! TA.AperFunction,Plated,PTH,ComponentDrill
T4C0.0276
; #@! TA.AperFunction,Plated,PTH,ComponentDrill
T5C0.0295
; #@! TA.AperFunction,Plated,PTH,ComponentDrill
T6C0.0394
%
G90
G05
T1
X2.07Y-3.9392
X2.2628Y-3.938
X2.3157Y-3.0051
X2.3199Y-4.874
X2.4833Y-3.1004
X2.4862Y-4.7766
X2.8303Y-4.0693
X2.8315Y-4.2654
X2.8315Y-4.4063
X2.8323Y-4.3299
X2.8335Y-3.9394
X2.8335Y-4.0071
X2.8335Y-4.1362
X2.8335Y-4.2008
X2.8346Y-3.8134
X2.8346Y-3.8811
X2.8354Y-3.7469
X2.8378Y-3.6854
X2.8421Y-4.474
X2.8516Y-3.6272
X2.8732Y-3.5594
X2.8992Y-3.5016
X2.9024Y-4.4909
X2.9358Y-3.4453
X2.963Y-4.4917
X2.9882Y-3.3961
X3.0Y-2.3199
X3.006Y-5.5573
X3.0272Y-4.4925
X3.0614Y-3.3528
X3.0874Y-4.4685
X3.0972Y-4.4043
X3.0974Y-2.4862
X3.098Y-4.3339
X3.1Y-4.2626
X3.1014Y-5.3898
X3.1067Y-3.8339
X3.1165Y-3.735
X3.126Y-3.3327
X3.1496Y-3.6295
X3.1972Y-3.3197
X3.2217Y-3.5756
X3.2701Y-3.3165
X3.3237Y-5.1359
X3.3315Y-3.5736
X3.3457Y-3.3248
X3.3622Y-5.2232
X3.3693Y-3.4425
X3.3772Y-2.4091
X3.4402Y-3.624
X3.4413Y-3.3689
X3.4488Y-5.2063
X3.45Y-5.2461
X3.4594Y-2.3646
X3.472Y-5.2843
X3.4787Y-5.1858
X3.4902Y-4.748
X3.4909Y-4.6386
X3.4909Y-4.6909
X3.4913Y-4.8047
X3.4917Y-4.5862
X3.5Y-5.3134
X3.5035Y-3.4004
X3.5106Y-5.472
X3.5146Y-5.2035
X3.522Y-3.7425
X3.528Y-3.7937
X3.5339Y-3.852
X3.535Y-3.2079
X3.537Y-3.0173
X3.537Y-3.9339
X3.537Y-4.0283
X3.5382Y-3.2626
X3.5382Y-3.3272
X3.539Y-3.3862
X3.539Y-3.4335
X3.5413Y-5.3406
X3.5425Y-5.1181
X3.5437Y-5.2319
X3.5476Y-2.9559
X3.5496Y-4.5913
X3.5516Y-4.9858
X3.5646Y-4.3496
X3.5677Y-5.2028
X3.5823Y-5.3126
X3.6008Y-4.3874
X3.602Y-4.3543
X3.6035Y-4.55
X3.6035Y-5.185
X3.6067Y-4.5854
X3.6101Y-3.7512
X3.6102Y-5.2835
X3.615Y-2.9445
X3.6236Y-4.9945
X3.6323Y-5.2453
X3.6335Y-5.2055
X3.6346Y-4.7677
X3.635Y-4.7366
X3.6413Y-4.5925
X3.6472Y-4.4075
X3.665Y-2.6768
X3.6654Y-4.9311
X3.6673Y-4.7713
X3.6681Y-4.8028
X3.6802Y-4.5419
X3.689Y-2.4866
X3.6898Y-2.437
X3.6917Y-2.537
X3.6925Y-2.587
X3.6929Y-2.637
X3.6957Y-2.387
X3.6961Y-4.9307
X3.6976Y-2.337
X3.6996Y-2.287
X3.7Y-4.5201
X3.7046Y-4.4291
X3.7162Y-3.7929
X3.7236Y-5.7728
X3.7279Y-4.4856
X3.7417Y-2.2602
X3.752Y-4.4079
X3.772Y-4.3292
X3.7727Y-2.2372
X3.7972Y-5.5528
X3.798Y-3.8145
X3.7984Y-3.8756
X3.7988Y-4.0016
X3.7996Y-3.9579
X3.8016Y-4.1862
X3.8346Y-5.3787
X3.8356Y-4.7695
X3.8425Y-3.9291
X3.8508Y-4.8594
X3.8572Y-4.1355
X3.8657Y-4.1748
X3.8697Y-4.0902
X3.8782Y-4.3122
X3.8815Y-3.824
X3.885Y-4.5283
X3.8858Y-4.578
X3.8862Y-4.4776
X3.8902Y-5.3811
X3.9079Y-4.0362
X3.913Y-3.8236
X3.9217Y-5.4866
X3.9331Y-2.2858
X3.9331Y-2.3409
X3.9331Y-2.3961
X3.937Y-4.5276
X3.9378Y-4.5772
X3.9382Y-4.4768
X3.939Y-5.6122
X3.9402Y-5.805
X3.9449Y-3.8244
X3.9461Y-5.4331
X3.9465Y-5.3823
X3.9563Y-4.7717
X3.9835Y-4.8795
X3.9866Y-4.5276
X3.9874Y-4.5772
X3.9878Y-4.4768
X3.9898Y-2.3394
X3.9902Y-2.3945
X3.9937Y-3.8276
X3.9945Y-5.1874
X3.9961Y-4.1484
X3.9984Y-2.1744
X4.002Y-4.2669
X4.0028Y-4.0829
X4.0051Y-5.1382
X4.0374Y-3.8276
X4.0461Y-4.0461
X4.0528Y-3.8618
X4.0531Y-3.9142
X4.0642Y-4.128
X4.1004Y-5.2819
X4.1017Y-2.2987
X4.1205Y-5.1382
X4.1312Y-2.3001
X4.1681Y-4.6843
X4.1746Y-2.2872
X4.1835Y-4.1268
X4.1902Y-2.337
X4.1941Y-2.387
X4.1965Y-2.4366
X4.1976Y-2.487
X4.1976Y-2.537
X4.2004Y-2.637
X4.2012Y-2.587
X4.2157Y-4.8673
X4.2228Y-5.4205
X4.2378Y-4.1484
X4.2413Y-4.2756
X4.2567Y-3.3539
X4.2776Y-4.8843
X4.2835Y-5.1961
X4.2843Y-5.1429
X4.285Y-5.1035
X4.2949Y-5.4917
X4.3138Y-4.4819
X4.3161Y-3.3669
X4.3224Y-4.2768
X4.324Y-3.4299
X4.3244Y-4.0177
X4.3248Y-3.8496
X4.3256Y-3.6374
X4.3256Y-3.7063
X4.3264Y-3.5744
X4.3264Y-3.7764
X4.3276Y-3.9142
X4.3287Y-4.0724
X4.3323Y-5.3974
X4.35Y-4.14
X4.354Y-5.42
X4.376Y-4.4819
X4.38Y-4.21
X4.4229Y-4.2595
X4.4727Y-5.428
X4.59Y-2.73
X4.61Y-4.26
X4.6488Y-4.3646
X4.6921Y-4.2413
X4.7274Y-5.1919
X4.7354Y-4.1921
X4.7622Y-4.1287
X4.7681Y-3.8941
X4.7689Y-3.398
X4.7689Y-3.4528
X4.7697Y-3.8398
X4.7705Y-3.5063
X4.7705Y-3.6276
X4.7705Y-3.6965
X4.7713Y-3.5646
X4.7713Y-3.7665
X4.772Y-4.7437
X4.772Y-4.7705
X4.7726Y-2.4833
X4.7728Y-4.7169
X4.7736Y-4.0567
X4.7736Y-4.6563
X4.7736Y-4.687
X4.7766Y-5.3878
X4.7831Y-3.3622
X4.8287Y-3.3476
X4.8661Y-4.8839
X4.868Y-2.3157
X4.874Y-5.5541
X4.885Y-3.3504
X4.8965Y-4.8839
X4.9252Y-4.8835
X4.9559Y-4.8819
X4.9878Y-4.8799
X5.0197Y-4.8701
X5.0287Y-4.7839
X5.0299Y-4.8138
X5.0307Y-4.8429
X5.3441Y-3.9213
X5.3441Y-3.9551
X5.3441Y-3.9917
X5.3445Y-4.0248
X5.3445Y-4.0587
X5.3445Y-4.0953
X5.3449Y-4.1319
X5.3449Y-4.1657
X5.3449Y-4.2024
X5.3453Y-3.5445
X5.3453Y-3.5783
X5.3453Y-3.615
X5.3457Y-3.648
X5.3457Y-3.6819
X5.3457Y-3.7185
X5.3461Y-3.7551
X5.3461Y-3.789
X5.3461Y-3.8256
X5.3878Y-3.0974
X5.3907Y-4.7726
X5.5541Y-3.0
X5.5583Y-4.868
X5.6122Y-3.935
X5.805Y-3.9338
T2
X4.4882Y-2.4803
X4.4882Y-2.5197
X4.4882Y-2.5591
X4.4882Y-2.5984
T4
X3.937Y-2.8319
X3.937Y-2.8819
X3.937Y-2.9319
X3.937Y-2.9819
X3.937Y-3.0319
X3.937Y-3.0819
X3.937Y-3.1319
X3.937Y-3.1819
X3.937Y-3.2319
X3.937Y-3.2819
X3.937Y-3.3319
X3.937Y-3.3819
X3.937Y-3.4319
X3.937Y-3.4819
X3.937Y-3.5319
X3.937Y-3.5819
X3.937Y-3.6319
X3.937Y-3.6819
X3.987Y-2.8319
X3.987Y-2.8819
X3.987Y-2.9319
X3.987Y-2.9819
X3.987Y-3.0319
X3.987Y-3.0819
X3.987Y-3.1319
X3.987Y-3.1819
X3.987Y-3.2319
X3.987Y-3.2819
X3.987Y-3.3319
X3.987Y-3.3819
X3.987Y-3.4319
X3.987Y-3.4819
X3.987Y-3.5319
X3.987Y-3.5819
X3.987Y-3.6319
X3.987Y-3.6819
T5
X2.4535Y-4.0283
X2.5323Y-4.0283
T6
X3.1667Y-3.937
X3.1667Y-4.037
X3.1667Y-4.137
X5.1181Y-3.3244
X5.1181Y-3.4244
X5.1181Y-3.5244
X5.1181Y-3.6244
X5.1181Y-3.7244
X5.1181Y-3.8244
X5.1181Y-3.9244
X5.1181Y-4.0244
X5.1181Y-4.1244
X5.1181Y-4.2244
X5.1181Y-4.3244
X5.1181Y-4.4244
X5.1181Y-4.5244
X5.1181Y-4.6244
X5.1181Y-4.7244
X5.2181Y-3.3244
X5.2181Y-3.4244
X5.2181Y-3.5244
X5.2181Y-3.6244
X5.2181Y-3.7244
X5.2181Y-3.8244
X5.2181Y-3.9244
X5.2181Y-4.0244
X5.2181Y-4.1244
X5.2181Y-4.2244
X5.2181Y-4.3244
X5.2181Y-4.4244
X5.2181Y-4.5244
X5.2181Y-4.6244
X5.2181Y-4.7244
T3
G00X4.2594Y-5.6169
M15
G01X4.2446Y-5.5762
M16
G05
G00X4.3135Y-5.7656
M15
G01X4.3027Y-5.736
M16
G05
G00X4.579Y-5.5005
M15
G01X4.5642Y-5.4598
M16
G05
G00X4.6332Y-5.6493
M15
G01X4.6224Y-5.6197
M16
G05
T0
M30
