%TF.GenerationSoftware,KiCad,Pcbnew,(6.0.8)*%
%TF.CreationDate,2022-10-25T22:06:49+02:00*%
%TF.ProjectId,Badge_v1,42616467-655f-4763-912e-6b696361645f,rev?*%
%TF.SameCoordinates,Original*%
%TF.FileFunction,Paste,Bot*%
%TF.FilePolarity,Positive*%
%FSLAX46Y46*%
G04 Gerber Fmt 4.6, Leading zero omitted, Abs format (unit mm)*
G04 Created by KiCad (PCBNEW (6.0.8)) date 2022-10-25 22:06:49*
%MOMM*%
%LPD*%
G01*
G04 APERTURE LIST*
G04 Aperture macros list*
%AMRotRect*
0 Rectangle, with rotation*
0 The origin of the aperture is its center*
0 $1 length*
0 $2 width*
0 $3 Rotation angle, in degrees counterclockwise*
0 Add horizontal line*
21,1,$1,$2,0,0,$3*%
G04 Aperture macros list end*
%ADD10RotRect,1.500000X0.900000X30.000000*%
%ADD11RotRect,1.500000X0.900000X300.000000*%
%ADD12RotRect,1.500000X0.900000X240.000000*%
%ADD13RotRect,1.500000X0.900000X330.000000*%
%ADD14RotRect,1.500000X0.900000X120.000000*%
%ADD15R,2.200000X2.200000*%
%ADD16R,0.900000X1.500000*%
%ADD17R,1.500000X0.900000*%
%ADD18RotRect,1.500000X0.900000X150.000000*%
%ADD19R,1.000000X0.750000*%
%ADD20RotRect,1.500000X0.900000X210.000000*%
%ADD21RotRect,1.500000X0.900000X60.000000*%
G04 APERTURE END LIST*
D10*
%TO.C,D5*%
X59703238Y-125153942D03*
X58053238Y-122296058D03*
X62296762Y-119846058D03*
X63946762Y-122703942D03*
%TD*%
D11*
%TO.C,D2*%
X74846058Y-59703238D03*
X77703942Y-58053238D03*
X80153942Y-62296762D03*
X77296058Y-63946762D03*
%TD*%
D12*
%TO.C,D12*%
X122296058Y-58053238D03*
X125153942Y-59703238D03*
X122703942Y-63946762D03*
X119846058Y-62296762D03*
%TD*%
D13*
%TO.C,D3*%
X58053238Y-77703942D03*
X59703238Y-74846058D03*
X63946762Y-77296058D03*
X62296762Y-80153942D03*
%TD*%
D14*
%TO.C,D8*%
X125153942Y-140296762D03*
X122296058Y-141946762D03*
X119846058Y-137703238D03*
X122703942Y-136053238D03*
%TD*%
D15*
%TO.C,BZ1*%
X106600000Y-130000000D03*
X93400000Y-130000000D03*
%TD*%
D16*
%TO.C,D1*%
X98350000Y-52550000D03*
X101650000Y-52550000D03*
X101650000Y-57450000D03*
X98350000Y-57450000D03*
%TD*%
D17*
%TO.C,D13*%
X118090000Y-109780000D03*
X118090000Y-113080000D03*
X113190000Y-113080000D03*
X113190000Y-109780000D03*
%TD*%
D18*
%TO.C,D9*%
X141946762Y-122296058D03*
X140296762Y-125153942D03*
X136053238Y-122703942D03*
X137703238Y-119846058D03*
%TD*%
D19*
%TO.C,SW6*%
X123000000Y-128125000D03*
X117000000Y-128125000D03*
X123000000Y-131875000D03*
X117000000Y-131875000D03*
%TD*%
D17*
%TO.C,D4*%
X52550000Y-101650000D03*
X52550000Y-98350000D03*
X57450000Y-98350000D03*
X57450000Y-101650000D03*
%TD*%
D19*
%TO.C,SW5*%
X77000000Y-128125000D03*
X83000000Y-128125000D03*
X77000000Y-131875000D03*
X83000000Y-131875000D03*
%TD*%
D16*
%TO.C,D7*%
X101650000Y-147450000D03*
X98350000Y-147450000D03*
X98350000Y-142550000D03*
X101650000Y-142550000D03*
%TD*%
D20*
%TO.C,D11*%
X140296762Y-74846058D03*
X141946762Y-77703942D03*
X137703238Y-80153942D03*
X136053238Y-77296058D03*
%TD*%
D17*
%TO.C,D10*%
X147450000Y-98350000D03*
X147450000Y-101650000D03*
X142550000Y-101650000D03*
X142550000Y-98350000D03*
%TD*%
D21*
%TO.C,D6*%
X77703942Y-141946762D03*
X74846058Y-140296762D03*
X77296058Y-136053238D03*
X80153942Y-137703238D03*
%TD*%
D17*
%TO.C,D14*%
X85620000Y-85960000D03*
X85620000Y-89260000D03*
X80720000Y-89260000D03*
X80720000Y-85960000D03*
%TD*%
M02*
