%TF.GenerationSoftware,KiCad,Pcbnew,(6.0.8)*%
%TF.CreationDate,2022-10-25T22:06:49+02:00*%
%TF.ProjectId,Badge_v1,42616467-655f-4763-912e-6b696361645f,rev?*%
%TF.SameCoordinates,Original*%
%TF.FileFunction,Soldermask,Bot*%
%TF.FilePolarity,Negative*%
%FSLAX46Y46*%
G04 Gerber Fmt 4.6, Leading zero omitted, Abs format (unit mm)*
G04 Created by KiCad (PCBNEW (6.0.8)) date 2022-10-25 22:06:49*
%MOMM*%
%LPD*%
G01*
G04 APERTURE LIST*
G04 Aperture macros list*
%AMRoundRect*
0 Rectangle with rounded corners*
0 $1 Rounding radius*
0 $2 $3 $4 $5 $6 $7 $8 $9 X,Y pos of 4 corners*
0 Add a 4 corners polygon primitive as box body*
4,1,4,$2,$3,$4,$5,$6,$7,$8,$9,$2,$3,0*
0 Add four circle primitives for the rounded corners*
1,1,$1+$1,$2,$3*
1,1,$1+$1,$4,$5*
1,1,$1+$1,$6,$7*
1,1,$1+$1,$8,$9*
0 Add four rect primitives between the rounded corners*
20,1,$1+$1,$2,$3,$4,$5,0*
20,1,$1+$1,$4,$5,$6,$7,0*
20,1,$1+$1,$6,$7,$8,$9,0*
20,1,$1+$1,$8,$9,$2,$3,0*%
%AMHorizOval*
0 Thick line with rounded ends*
0 $1 width*
0 $2 $3 position (X,Y) of the first rounded end (center of the circle)*
0 $4 $5 position (X,Y) of the second rounded end (center of the circle)*
0 Add line between two ends*
20,1,$1,$2,$3,$4,$5,0*
0 Add two circle primitives to create the rounded ends*
1,1,$1,$2,$3*
1,1,$1,$4,$5*%
%AMRotRect*
0 Rectangle, with rotation*
0 The origin of the aperture is its center*
0 $1 length*
0 $2 width*
0 $3 Rotation angle, in degrees counterclockwise*
0 Add horizontal line*
21,1,$1,$2,0,0,$3*%
G04 Aperture macros list end*
%ADD10C,0.600000*%
%ADD11HorizOval,0.900000X-0.188111X0.516831X0.188111X-0.516831X0*%
%ADD12HorizOval,0.900000X-0.136808X0.375877X0.136808X-0.375877X0*%
%ADD13R,1.700000X1.700000*%
%ADD14O,1.700000X1.700000*%
%ADD15RoundRect,0.250000X-0.350000X-0.625000X0.350000X-0.625000X0.350000X0.625000X-0.350000X0.625000X0*%
%ADD16O,1.200000X1.750000*%
%ADD17R,1.000000X1.000000*%
%ADD18O,1.000000X1.000000*%
%ADD19R,0.850000X0.850000*%
%ADD20O,0.850000X0.850000*%
%ADD21C,0.900000*%
%ADD22RotRect,1.500000X0.900000X30.000000*%
%ADD23RotRect,1.500000X0.900000X300.000000*%
%ADD24RotRect,1.500000X0.900000X240.000000*%
%ADD25RotRect,1.500000X0.900000X330.000000*%
%ADD26RotRect,1.500000X0.900000X120.000000*%
%ADD27R,2.200000X2.200000*%
%ADD28R,0.900000X1.500000*%
%ADD29R,1.500000X0.900000*%
%ADD30RotRect,1.500000X0.900000X150.000000*%
%ADD31R,1.000000X0.750000*%
%ADD32RotRect,1.500000X0.900000X210.000000*%
%ADD33RotRect,1.500000X0.900000X60.000000*%
G04 APERTURE END LIST*
D10*
%TO.C,P1*%
X114939782Y-140136776D03*
X109508359Y-142113653D03*
D11*
X108000429Y-142151689D03*
X116119373Y-139196635D03*
D12*
X109426653Y-146070207D03*
X117545597Y-143115153D03*
%TD*%
D13*
%TO.C,J3*%
X80435000Y-100000000D03*
D14*
X80435000Y-102540000D03*
X80435000Y-105080000D03*
%TD*%
D15*
%TO.C,J1*%
X62320000Y-102320000D03*
D16*
X64320000Y-102320000D03*
%TD*%
D17*
%TO.C,J5*%
X100000000Y-93520000D03*
D18*
X101270000Y-93520000D03*
X100000000Y-92250000D03*
X101270000Y-92250000D03*
X100000000Y-90980000D03*
X101270000Y-90980000D03*
X100000000Y-89710000D03*
X101270000Y-89710000D03*
X100000000Y-88440000D03*
X101270000Y-88440000D03*
X100000000Y-87170000D03*
X101270000Y-87170000D03*
X100000000Y-85900000D03*
X101270000Y-85900000D03*
X100000000Y-84630000D03*
X101270000Y-84630000D03*
X100000000Y-83360000D03*
X101270000Y-83360000D03*
X100000000Y-82090000D03*
X101270000Y-82090000D03*
X100000000Y-80820000D03*
X101270000Y-80820000D03*
X100000000Y-79550000D03*
X101270000Y-79550000D03*
X100000000Y-78280000D03*
X101270000Y-78280000D03*
X100000000Y-77010000D03*
X101270000Y-77010000D03*
X100000000Y-75740000D03*
X101270000Y-75740000D03*
X100000000Y-74470000D03*
X101270000Y-74470000D03*
X100000000Y-73200000D03*
X101270000Y-73200000D03*
X100000000Y-71930000D03*
X101270000Y-71930000D03*
%TD*%
D19*
%TO.C,J2*%
X114000000Y-63000000D03*
D20*
X114000000Y-64000000D03*
X114000000Y-65000000D03*
X114000000Y-66000000D03*
%TD*%
D21*
%TO.C,SW3*%
X84085045Y-142467132D03*
X90474955Y-144792868D03*
%TD*%
D13*
%TO.C,J4*%
X130000000Y-120000000D03*
D14*
X132540000Y-120000000D03*
X130000000Y-117460000D03*
X132540000Y-117460000D03*
X130000000Y-114920000D03*
X132540000Y-114920000D03*
X130000000Y-112380000D03*
X132540000Y-112380000D03*
X130000000Y-109840000D03*
X132540000Y-109840000D03*
X130000000Y-107300000D03*
X132540000Y-107300000D03*
X130000000Y-104760000D03*
X132540000Y-104760000D03*
X130000000Y-102220000D03*
X132540000Y-102220000D03*
X130000000Y-99680000D03*
X132540000Y-99680000D03*
X130000000Y-97140000D03*
X132540000Y-97140000D03*
X130000000Y-94600000D03*
X132540000Y-94600000D03*
X130000000Y-92060000D03*
X132540000Y-92060000D03*
X130000000Y-89520000D03*
X132540000Y-89520000D03*
X130000000Y-86980000D03*
X132540000Y-86980000D03*
X130000000Y-84440000D03*
X132540000Y-84440000D03*
%TD*%
D21*
%TO.C,SW4*%
X56819985Y-114814148D03*
X55060015Y-108245852D03*
%TD*%
D22*
%TO.C,D5*%
X59703238Y-125153942D03*
X58053238Y-122296058D03*
X62296762Y-119846058D03*
X63946762Y-122703942D03*
%TD*%
D23*
%TO.C,D2*%
X74846058Y-59703238D03*
X77703942Y-58053238D03*
X80153942Y-62296762D03*
X77296058Y-63946762D03*
%TD*%
D24*
%TO.C,D12*%
X122296058Y-58053238D03*
X125153942Y-59703238D03*
X122703942Y-63946762D03*
X119846058Y-62296762D03*
%TD*%
D25*
%TO.C,D3*%
X58053238Y-77703942D03*
X59703238Y-74846058D03*
X63946762Y-77296058D03*
X62296762Y-80153942D03*
%TD*%
D26*
%TO.C,D8*%
X125153942Y-140296762D03*
X122296058Y-141946762D03*
X119846058Y-137703238D03*
X122703942Y-136053238D03*
%TD*%
D27*
%TO.C,BZ1*%
X106600000Y-130000000D03*
X93400000Y-130000000D03*
%TD*%
D28*
%TO.C,D1*%
X98350000Y-52550000D03*
X101650000Y-52550000D03*
X101650000Y-57450000D03*
X98350000Y-57450000D03*
%TD*%
D29*
%TO.C,D13*%
X118090000Y-109780000D03*
X118090000Y-113080000D03*
X113190000Y-113080000D03*
X113190000Y-109780000D03*
%TD*%
D30*
%TO.C,D9*%
X141946762Y-122296058D03*
X140296762Y-125153942D03*
X136053238Y-122703942D03*
X137703238Y-119846058D03*
%TD*%
D31*
%TO.C,SW6*%
X123000000Y-128125000D03*
X117000000Y-128125000D03*
X123000000Y-131875000D03*
X117000000Y-131875000D03*
%TD*%
D29*
%TO.C,D4*%
X52550000Y-101650000D03*
X52550000Y-98350000D03*
X57450000Y-98350000D03*
X57450000Y-101650000D03*
%TD*%
D31*
%TO.C,SW5*%
X77000000Y-128125000D03*
X83000000Y-128125000D03*
X77000000Y-131875000D03*
X83000000Y-131875000D03*
%TD*%
D28*
%TO.C,D7*%
X101650000Y-147450000D03*
X98350000Y-147450000D03*
X98350000Y-142550000D03*
X101650000Y-142550000D03*
%TD*%
D32*
%TO.C,D11*%
X140296762Y-74846058D03*
X141946762Y-77703942D03*
X137703238Y-80153942D03*
X136053238Y-77296058D03*
%TD*%
D29*
%TO.C,D10*%
X147450000Y-98350000D03*
X147450000Y-101650000D03*
X142550000Y-101650000D03*
X142550000Y-98350000D03*
%TD*%
D33*
%TO.C,D6*%
X77703942Y-141946762D03*
X74846058Y-140296762D03*
X77296058Y-136053238D03*
X80153942Y-137703238D03*
%TD*%
D29*
%TO.C,D14*%
X85620000Y-85960000D03*
X85620000Y-89260000D03*
X80720000Y-89260000D03*
X80720000Y-85960000D03*
%TD*%
M02*
